<svg xmlns="http://www.w3.org/2000/svg" width="108" height="24" fill="none"><path stroke="#fff" stroke-linecap="round" stroke-linejoin="round" stroke-width="2" d="m26 17 5 1 .75-1.5M37 21v-4l-4-3 1-6m0 0-5 1v3m5-4 3 3 3 1m-6-8a1 1 0 1 0 2 0 1 1 0 0 0-2 0M55 19v-4l-3-3 5-4 2 3h3m-17 7a3 3 0 1 0 6 0 3 3 0 0 0-6 0m14 0a3 3 0 1 0 6 0 3 3 0 0 0-6 0m0-13a1 1 0 1 0 2 0 1 1 0 0 0-2 0M78 21l1-9m0 0 7-6m-7 6-5-1h-6m8.5-2.5L81 5m-9 2a1 1 0 1 0 2 0 1 1 0 0 0-2 0M90 11l4-2 3.5 3-1.5 2m-9 2.75a2.4 2.4 0 0 0 1 .25 2.4 2.4 0 0 0 2-1 2.4 2.4 0 0 1 2-1 2.4 2.4 0 0 1 2 1 2.4 2.4 0 0 0 2 1 2.4 2.4 0 0 0 2-1 2.4 2.4 0 0 1 2-1 2.4 2.4 0 0 1 2 1 2.4 2.4 0 0 0 2 1c.348-.01.689-.095 1-.25M99 9a1 1 0 1 0 2 0 1 1 0 0 0-2 0"/><path fill="#fff" d="m15.079 5.999.239.012c1.43.097 3.434 1.013 4.508 2.586a1 1 0 0 1-.344 1.44c-.05.028-.372.158-.497.217a4 4 0 0 0-.722.431c-.614.461-.948 1.009-.942 1.694.01.885.339 1.454.907 1.846.208.143.436.253.666.33.126.043.426.116.444.122a1 1 0 0 1 .662.942C20 18.24 16.96 22 14.714 22c-.79 0-1.272-.091-1.983-.315l-.098-.031c-.463-.146-.702-.192-1.133-.192-.52 0-.863.06-1.518.237l-.197.053c-.575.153-.964.226-1.5.248C5.536 22 3 16.907 3 12.928c0-3.87 1.786-6.92 5.286-6.92q.444.002.909.128c.403.107.774.26 1.296.508.787.374.948.44 1.009.44h.016c.03-.003.128-.047 1.056-.457 1.061-.467 1.864-.685 2.746-.616l-.24-.012zM14 1a1 1 0 0 1 1 1 3 3 0 0 1-3 3 1 1 0 0 1-1-1 3 3 0 0 1 3-3"/></svg>
